<svg viewBox="0 0 201 677.9773" x="0" y="0" fill="none" xmlns="http://www.w3.org/2000/svg"><defs><clipPath id="clip1_391_1023" xmlns="http://www.w3.org/2000/svg">
<rect width="173.328" height="216.507" fill="white" transform="translate(3, 39.031000000000006) rotate(-13.0137, 0, 0)"/>
</clipPath><clipPath id="clip2_391_1023" xmlns="http://www.w3.org/2000/svg">
<rect width="173.328" height="216.507" fill="white" transform="translate(0, 467.03099999999995) rotate(-13.0137, 0, 0)"/>
</clipPath><clipPath id="clip3_391_1023" xmlns="http://www.w3.org/2000/svg">
<rect width="173.328" height="216.507" fill="white" transform="translate(16, 254.031) rotate(-13.0137, 0, 0)"/>
</clipPath></defs><g id="Design bakground" xmlns="http://www.w3.org/2000/svg">
<g id="Logo Style" opacity="0.1" clip-path="url(#clip1_391_1023)">
<path id="Vector_28" fill-rule="evenodd" clip-rule="evenodd" d="M96.2,212.78l-40.52,-11.379l2.94,-85.783l40.52,11.379z" fill="currentColor"/>
<path id="Vector_29" fill-rule="evenodd" clip-rule="evenodd" d="M58.6,115.623l-40.53,-11.379l1.72,-50.452c0.56,-16.64 22.65,-29.304 41.74,-23.951z" fill="currentColor"/>
<path id="Vector_30" fill-rule="evenodd" clip-rule="evenodd" d="M199.04,215.936l-40.52,-11.379l2.91,-85.778l40.53,11.379z" fill="currentColor"/>
<path id="Vector_31" fill-rule="evenodd" clip-rule="evenodd" d="M161.43,118.779l-40.52,-11.379l1.72,-50.452c0.56,-16.64 22.65,-29.304 41.74,-23.951z" fill="currentColor"/>
</g>
<g id="Logo Style_2" opacity="0.1" clip-path="url(#clip2_391_1023)">
<path id="Vector_32" fill-rule="evenodd" clip-rule="evenodd" d="M93.2,640.78l-40.52,-11.379l2.94,-85.783l40.52,11.38z" fill="currentColor"/>
<path id="Vector_33" fill-rule="evenodd" clip-rule="evenodd" d="M55.6,543.623l-40.53,-11.379l1.72,-50.452c0.56,-16.64 22.65,-29.304 41.74,-23.951z" fill="currentColor"/>
<path id="Vector_34" fill-rule="evenodd" clip-rule="evenodd" d="M196.04,643.936l-40.52,-11.379l2.91,-85.778l40.53,11.379z" fill="currentColor"/>
<path id="Vector_35" fill-rule="evenodd" clip-rule="evenodd" d="M158.43,546.779l-40.52,-11.379l1.72,-50.452c0.56,-16.64 22.65,-29.304 41.74,-23.951z" fill="currentColor"/>
</g>
<g id="Logo Style_3" opacity="0.1" clip-path="url(#clip3_391_1023)">
<path id="Vector_36" fill-rule="evenodd" clip-rule="evenodd" d="M109.2,427.78l-40.52,-11.379l2.94,-85.783l40.52,11.379z" fill="currentColor"/>
<path id="Vector_37" fill-rule="evenodd" clip-rule="evenodd" d="M71.6,330.623l-40.53,-11.379l1.72,-50.452c0.56,-16.64 22.65,-29.304 41.74,-23.951z" fill="currentColor"/>
<path id="Vector_38" fill-rule="evenodd" clip-rule="evenodd" d="M212.04,430.936l-40.52,-11.379l2.91,-85.778l40.53,11.379z" fill="currentColor"/>
<path id="Vector_39" fill-rule="evenodd" clip-rule="evenodd" d="M174.43,333.779l-40.52,-11.379l1.72,-50.452c0.56,-16.64 22.65,-29.304 41.74,-23.951z" fill="currentColor"/>
</g>
</g></svg>